<svg xmlns="http://www.w3.org/2000/svg" version="1.0" width="500.000000pt" height="500.000000pt" viewBox="0 0 500.000000 500.000000" preserveAspectRatio="xMidYMid meet">

<g transform="translate(0.000000,500.000000) scale(0.100000,-0.100000)" fill="#ffffff" stroke="none">
<path d="M2350 4394 c-14 -2 -65 -9 -115 -15 -236 -28 -517 -128 -730 -259 -250 -153 -482 -385 -635 -635 -151 -245 -254 -567 -267 -832 l-6 -123 587 0 c462 0 586 -3 586 -12 0 -7 -21 -64 -46 -125 l-47 -113 -74 0 -75 0 57 -62 c31 -34 78 -92 103 -130 25 -37 48 -68 51 -68 3 0 146 347 316 770 l310 770 135 0 135 0 173 -428 c95 -235 172 -432 172 -438 0 -8 -39 -11 -131 -10 l-132 1 -103 255 c-56 140 -106 261 -111 268 -5 9 -54 -100 -140 -315 -73 -180 -135 -336 -139 -345 -6 -17 50 -18 1086 -18 l1093 0 -7 93 c-37 474 -225 888 -555 1218 -280 280 -631 462 -1021 530 -109 19 -409 34 -470 23z" fill="#ffffff"/>
<path d="M610 2261 c0 -48 45 -245 81 -355 256 -780 985 -1306 1809 -1306 485 0 947 185 1307 525 311 292 506 669 578 1118 l6 37 -212 0 c-240 0 -290 -8 -404 -68 -139 -73 -294 -264 -363 -450 l-27 -72 -133 2 -134 3 -116 290 -117 290 -386 3 -385 2 -117 -292 -116 -293 -137 0 -136 0 -23 60 c-93 248 -262 433 -455 497 -57 19 -92 22 -292 26 -224 4 -228 3 -228 -17z" fill="#ffffff"/>
<path d="M3169 2233 c54 -138 87 -213 91 -213 3 0 25 29 49 65 23 36 67 92 97 124 30 32 54 61 54 65 0 3 -70 6 -155 6 l-155 0 19 -47z" fill="#ffffff"/>
</g>
</svg>